<?xml version="1.0" standalone="no"?><!DOCTYPE svg PUBLIC "-//W3C//DTD SVG 1.1//EN"
        "http://www.w3.org/Graphics/SVG/1.1/DTD/svg11.dtd">
<svg t="1597927135101" class="icon" viewBox="0 0 1054 1024" version="1.1" xmlns="http://www.w3.org/2000/svg" p-id="2140"
     xmlns:xlink="http://www.w3.org/1999/xlink" width="205.859375" height="200">
    <defs>
        <style type="text/css"></style>
    </defs>
    <path d="M1026.765 391.99l-28.762-184.877c-12.326-69.84-73.946-131.466-143.792-143.792L669.334 34.559c-8.217 0-16.433-4.109-28.762-4.109-57.513 0-119.142 24.649-156.119 61.622L85.951 490.574c-57.513 57.513-57.513 152.007 0 209.525l275.255 275.255c28.762 28.762 65.73 45.19 106.817 45.19s78.058-16.433 106.817-45.19l398.502-398.502c45.19-53.406 65.73-115.034 53.406-184.877z m-242.388-49.299c-45.19 0-82.162-36.976-82.162-82.162s36.976-82.162 82.162-82.162 82.162 36.976 82.162 82.162c0 45.19-36.976 82.162-82.162 82.162z"
          p-id="2141"></path>
</svg>